<?xml version="1.0" encoding="utf-8"?>
<!-- Generator: Adobe Illustrator 22.1.0, SVG Export Plug-In . SVG Version: 6.00 Build 0)  -->
<!DOCTYPE svg PUBLIC "-//W3C//DTD SVG 1.1//EN" "http://www.w3.org/Graphics/SVG/1.1/DTD/svg11.dtd">
<svg version="1.1" id="Layer_1" xmlns="http://www.w3.org/2000/svg" xmlns:xlink="http://www.w3.org/1999/xlink" x="0px" y="0px"
	 viewBox="0 0 65 56.2" style="enable-background:new 0 0 65 56.2;" xml:space="preserve">
<style type="text/css">
	.st0{fill:#FFFFFF;stroke:#FFFFFF;stroke-miterlimit:10;}
</style>
<g id="Bag">
	<path class="st0" d="M43.5,31H21.1c-0.9,0-1.7,0.3-2.3,0.9c-0.6,0.6-0.9,1.4-0.9,2.3v12c0,0.8,0.3,1.7,0.9,2.3
		c0.6,0.6,1.4,0.9,2.3,0.9h22.3c0.8,0,1.7-0.3,2.3-0.9c0.6-0.6,0.9-1.4,0.9-2.3v-12c0-0.8-0.3-1.7-0.9-2.3
		C45.1,31.3,44.3,31,43.5,31z M20.3,33.3c0.2-0.2,0.5-0.4,0.9-0.4h22.3c0.3,0,0.6,0.1,0.9,0.4c0.2,0.2,0.4,0.5,0.4,0.9v2.1H19.9
		v-2.1C19.9,33.8,20,33.5,20.3,33.3z M44.3,47c-0.2,0.2-0.5,0.4-0.9,0.4H21.1c-0.3,0-0.6-0.1-0.9-0.4c-0.2-0.2-0.4-0.5-0.4-0.9v-7.9
		h19.4v1.9c0,0.6,0.4,1,1,1c0.6,0,1-0.4,1-1v-1.9h3.4v7.9C44.7,46.5,44.5,46.8,44.3,47z"/>
	<path class="st0" d="M32.6,10.9C32.6,10.9,32.5,10.9,32.6,10.9c-10.9,0-14.5,16.2-14.7,16.8c-0.1,0.5,0.2,1.1,0.8,1.2
		c0.1,0,0.1,0,0.2,0c0.5,0,0.9-0.3,1-0.8c0-0.2,3.4-15.3,12.6-15.3c0,0,0,0,0.1,0c9.2,0.1,12.1,15.1,12.1,15.2
		c0.1,0.5,0.6,0.9,1.2,0.8c0.5-0.1,0.9-0.6,0.8-1.2C46.5,27.1,43.5,11,32.6,10.9z"/>
	<path class="st0" d="M62.1,30.3c-0.8-1.8-1.6-3.6-1.9-5.2c-0.3-1.6-0.3-3.5-0.4-5.4c-0.2-4.2-0.4-8.2-2.3-10.1
		c-2.8-2.7-9.9-0.7-13.9,0.5c-1.4-1.2-2.8-2.2-4.4-2.9c-0.2-2.5-1.9-6.7-7-6.7c-5.1,0-6.8,4.2-7,6.7c-1.5,0.7-2.9,1.7-4.2,2.8
		c0,0-0.1-0.1-0.1-0.1C17.3,8.8,10.4,6.8,7.5,9.6c-2,1.9-2.1,5.9-2.3,10.1c-0.1,1.9-0.2,3.8-0.4,5.4c-0.3,1.6-1,3.4-1.9,5.2
		c-1.8,4-3.9,8.5-0.8,13.2c1.4,2.2,5.9,3.2,8.6,3.8c0.3,1.9,0.8,3.7,1.3,5.5c0.6,1.8,2.2,2.9,4.1,2.9c6.7,0,25.8,0,32.4,0
		c1.9,0,3.5-1.2,4.1-3c0.5-1.7,1-3.5,1.3-5.4c0,0,0.1,0,0.1,0c2.6-0.6,7.4-1.6,8.9-3.9C66,38.8,63.9,34.3,62.1,30.3z M32.3,2.5
		c3.3,0,4.4,2.3,4.8,3.8c-1.6-0.5-3.2-0.8-4.8-0.8c-1.7,0-3.3,0.3-4.8,0.8C27.9,4.8,29,2.5,32.3,2.5z M3.7,42.4
		C1.3,38.6,2.9,35,4.7,31.1c0.9-1.9,1.7-3.8,2-5.7c0.3-1.7,0.4-3.7,0.4-5.6c0.2-3.5,0.3-7.4,1.7-8.7c1.9-1.8,7.4-0.4,10.6,0.5
		c-5.8,6-9.6,15.9-9.6,27.1c0,2.2,0.2,4.4,0.4,6.5C8.1,44.6,4.6,43.7,3.7,42.4z M50.7,52.1c-0.3,0.9-1.2,1.6-2.2,1.6
		c-6.7,0-25.8,0-32.4,0c-1,0-1.9-0.6-2.2-1.6c-1.3-4.2-2-8.9-2-13.5c0-17.2,9.2-31.1,20.4-31.1s20.4,14,20.4,31.1
		C52.7,43.3,52,47.9,50.7,52.1z M61.3,42.4c-0.9,1.4-4.9,2.4-7,2.9c0.3-2.2,0.5-4.4,0.5-6.6c0-11.1-3.7-20.9-9.4-26.9
		c3.3-0.9,9.1-2.3,10.8-0.6c1.4,1.3,1.5,5.3,1.7,8.7c0.1,1.9,0.2,3.9,0.4,5.6c0.3,1.9,1.2,3.8,2,5.7C62.1,35,63.7,38.6,61.3,42.4z"
		/>
</g>
</svg>
