<?xml version="1.0" encoding="utf-8"?>
<!-- Generator: Adobe Illustrator 22.1.0, SVG Export Plug-In . SVG Version: 6.00 Build 0)  -->
<!DOCTYPE svg PUBLIC "-//W3C//DTD SVG 1.1//EN" "http://www.w3.org/Graphics/SVG/1.1/DTD/svg11.dtd">
<svg version="1.1" id="Capa_1" xmlns="http://www.w3.org/2000/svg" xmlns:xlink="http://www.w3.org/1999/xlink" x="0px" y="0px"
	 viewBox="0 0 465.9 512" style="enable-background:new 0 0 465.9 512;" xml:space="preserve">
<style type="text/css">
	.st0{fill:#FF9933;}
</style>
<g>
	<path class="st0" d="M232.9,349.2c18,0,32.6-14.6,32.6-32.6s-14.6-32.6-32.6-32.6s-32.6,14.6-32.6,32.6S215,349.2,232.9,349.2z
		 M232.9,299.2c9.6,0,17.5,7.8,17.5,17.5s-7.8,17.5-17.5,17.5s-17.5-7.8-17.5-17.5S223.3,299.2,232.9,299.2z"/>
	<path class="st0" d="M458.3,443.1c4.2,0,7.5-3.4,7.5-7.5v-45.1c0-2.7-1.5-5.2-3.8-6.6l-117.3-66.3v-23.9c0-2.7-1.4-5.1-3.7-6.5
		l-19.4-11.6v-34.7c0-4.2-3.4-7.5-7.5-7.5s-7.5,3.4-7.5,7.5v25.7L236.8,225c-2.4-1.4-5.3-1.4-7.7,0l-69.8,41.6V164.3h147.3v90.2
		c0,4.2,3.4,7.5,7.5,7.5c4.2,0,7.5-3.4,7.5-7.5v-97.7c0-1.7-0.6-3.4-1.6-4.7l-79.5-99.8V33.4h9c4.2,0,7.5-3.4,7.5-7.5
		s-3.4-7.5-7.5-7.5h-9V7.5c0-4.2-3.4-7.5-7.5-7.5c-4.2,0-7.5,3.4-7.5,7.5v10.8h-9c-4.2,0-7.5,3.4-7.5,7.5s3.4,7.5,7.5,7.5h9v18.9
		l-79.5,99.8c-1.1,1.3-1.6,3-1.6,4.7v118.8l-19.4,11.6c-2.3,1.4-3.7,3.8-3.7,6.5v23.9L3.8,383.8c-2.4,1.3-3.8,3.8-3.8,6.6v114.1
		c0,4.2,3.4,7.5,7.5,7.5h450.8c4.2,0,7.5-3.4,7.5-7.5v-83.9c0-4.2-3.4-7.5-7.5-7.5s-7.5,3.4-7.5,7.5v76.4H344.7V334.8l106.1,60v40.7
		C450.8,439.7,454.2,443.1,458.3,443.1z M232.9,67l65.5,82.2H167.4L232.9,67z M128.7,398.5c-4.2,0-7.5,3.4-7.5,7.5v90.9H15.1V394.8
		l106.1-60v82.7c0,4.2,3.4,7.5,7.5,7.5c4.2,0,7.5-3.4,7.5-7.5v-95.7c0,0,0,0,0,0v-23.9l96.7-57.6l96.7,57.6v23.9c0,0,0,0,0,0v175.2
		H283v-73.7c0-27.6-22.5-50.1-50.1-50.1s-50.1,22.5-50.1,50.1v73.7h-46.7V406C136.2,401.9,132.8,398.5,128.7,398.5z M267.9,496.9
		h-70v-73.7c0-19.3,15.7-35,35-35s35,15.7,35,35L267.9,496.9L267.9,496.9z"/>
</g>
</svg>
