<?xml version="1.0" encoding="utf-8"?>
<!-- Generator: Adobe Illustrator 22.1.0, SVG Export Plug-In . SVG Version: 6.00 Build 0)  -->
<!DOCTYPE svg PUBLIC "-//W3C//DTD SVG 1.1//EN" "http://www.w3.org/Graphics/SVG/1.1/DTD/svg11.dtd">
<svg version="1.1" id="Layer_1" xmlns="http://www.w3.org/2000/svg" xmlns:xlink="http://www.w3.org/1999/xlink" x="0px" y="0px"
	 viewBox="0 0 384 480.6" style="enable-background:new 0 0 384 480.6;" xml:space="preserve">
<style type="text/css">
	.st0{fill:#FF9933;}
</style>
<path class="st0" d="M384,364.6c0-39.2-26.4-73.6-64-84.8l-48.8-13.9c-1-0.3-1.9-1-2.4-2l-11.2-21.7h0.8
	c18.4-13.6,29.6-35.2,29.6-58.4v0c0-1.5,0.8-2.8,2.1-3.5l16.3-8.5c8-4,13.6-12,13.6-21.6v-5.6c0-12.8-10.4-24-24-24h-4.1
	c-2.2,0-3.9-1.7-3.9-3.9v-3.3v-0.8V77.4c0-30.4-19.2-57.6-47.2-68L236,7.8c-28-10.4-59.2-10.4-87.2,0L144,9.4
	c-28.8,10.4-48,37.6-48,68v35.2v0.8v3.3c0,2.2-1.7,3.9-3.9,3.9h-0.2c-15.3,0-27.9,12.6-27.9,27.9v1.7c0,8.8,4.8,17.6,13.6,21.6
	l16.3,8.5c1.3,0.7,2.1,2,2.1,3.5v0c0,23.2,11.2,44.8,29.6,58.4h0.8l-11.2,21.7c-0.5,0.9-1.3,1.6-2.3,1.9L64,280.6
	c-37.6,11.2-64,45.6-64,84.8V466c0,8.1,6.6,14.6,14.6,14.6h354.9c8,0,14.5-6.5,14.5-14.5V364.6z M291.9,136.6h0.2
	c6.5,0,11.9,5.4,11.9,11.9v1.7c0,3.2-1.6,5.6-4.8,7.2l-5.4,3.1c-2.6,1.5-5.8-0.4-5.8-3.4v-16.6C288,138.3,289.7,136.6,291.9,136.6z
	 M90.3,161l-5.3-2.6c-0.2-0.1-0.3-0.2-0.5-0.3c-2.3-1.6-4.6-3.9-4.6-7v-6.4c0-4,3.2-8,8-8h4.1c2.2,0,3.9,1.7,3.9,3.9v17
	C96,160.4,92.9,162.3,90.3,161z M112,77.4c0-23.2,14.4-44.8,36.8-52.8l4.8-1.6c24.8-8.8,52-8.8,76.8,0l4.8,1.6
	c22.4,8,36.8,28.8,36.8,52.8v5.5c0,3.1-3.5,5-6.1,3.2l-1.1-0.8c-44.7-28-101.5-28-146.2-0.1c-0.1,0.1-0.2,0.1-0.3,0.2h0
	c-2.6,1.9-6.2,0.1-6.2-3.1V77.4z M112,183.8v-70.4c0-2.4,1.6-5.6,4-6.4l12-7.2c39.2-24.8,89.6-24.8,128.8,0l12,7.2
	c2.4,1.6,4,4,4,6.4v70.4c0,17.6-8.8,34.4-23.2,45.6l-24,17.6c-20,14.4-46.4,14.4-65.6,0l-24-17.6C120.8,219,112,202.2,112,183.8
	L112,183.8z M193.9,320.4l32.6-17.9c3.6-2,7.4,2.1,5.2,5.5l-36.3,56.3c-1.5,2.4-5,2.4-6.6,0L152.4,308c-2.2-3.4,1.6-7.5,5.2-5.5
	l32.6,17.9C191.3,321,192.7,321,193.9,320.4z M132.1,266l5.1-10.2c1.1-2.1,3.8-2.8,5.7-1.5l6.7,4.6c9.5,6.5,19.6,11.1,30.9,12.5
	c2,0.2,3.5,1.9,3.5,3.9v16.3c0,3-3.2,4.8-5.8,3.4l-44.5-23.9C131.9,270.2,131.2,267.9,132.1,266z M200,292.5V276
	c0-1.9,1.4-3.5,3.3-3.8c11.4-1.8,21.6-5.8,31.1-12.3l6.7-4.6c2-1.4,4.7-0.7,5.7,1.5l5.1,10.2c0.9,1.9,0.2,4.2-1.6,5.2l-44.5,23.9
	C203.2,297.3,200,295.4,200,292.5z M368,464.6h-68.1c-2.2,0-3.9-1.7-3.9-3.9v-80.2c0-2.2-1.7-3.9-3.9-3.9h-8.2
	c-2.2,0-3.9,1.7-3.9,3.9v80.2c0,2.2-1.7,3.9-3.9,3.9H107.9c-2.2,0-3.9-1.7-3.9-3.9v-80.2c0-2.2-1.7-3.9-3.9-3.9h-8.2
	c-2.2,0-3.9,1.7-3.9,3.9v80.2c0,2.2-1.7,3.9-3.9,3.9H19.9c-2.2,0-3.9-1.7-3.9-3.9v-96.1c0-32,21.6-60,52-69.6l45.2-12.8
	c1.7-0.5,3.4,0.2,4.3,1.6L183.4,386c0.4,0.6,0.6,1.4,0.6,2.1v8.5c0,2.2-1.7,3.9-3.9,3.9h-8.2c-2.2,0-3.9,1.7-3.9,3.9v8.2
	c0,2.2,1.7,3.9,3.9,3.9h8.2c2.2,0,3.9,1.7,3.9,3.9v24.2c0,2.2,1.7,3.9,3.9,3.9h8.2c2.2,0,3.9-1.7,3.9-3.9v-24.2
	c0-2.2,1.7-3.9,3.9-3.9h8.2c2.2,0,3.9-1.7,3.9-3.9v-8.2c0-2.2-1.7-3.9-3.9-3.9h-8.2c-2.2,0-3.9-1.7-3.9-3.9v-8.5
	c0-0.7,0.2-1.5,0.6-2.1l65-101.4c0.9-1.4,2.7-2.1,4.4-1.6l45.2,12.8c31.2,8.8,52,36.8,52,69.6v99.2H368z"/>
</svg>
