<?xml version="1.0" encoding="utf-8"?>
<!-- Generator: Adobe Illustrator 22.1.0, SVG Export Plug-In . SVG Version: 6.00 Build 0)  -->
<!DOCTYPE svg PUBLIC "-//W3C//DTD SVG 1.1//EN" "http://www.w3.org/Graphics/SVG/1.1/DTD/svg11.dtd">
<svg version="1.1" id="Capa_1" xmlns="http://www.w3.org/2000/svg" xmlns:xlink="http://www.w3.org/1999/xlink" x="0px" y="0px"
	 viewBox="0 0 283.6 489.6" style="enable-background:new 0 0 283.6 489.6;" xml:space="preserve">
<style type="text/css">
	.st0{fill:#FF9933;}
</style>
<g>
	<path class="st0" d="M144.8,489.6c-8.7,0-17.4-0.4-26.2-1.2c-44.3-4.1-79.3-17.6-100.9-28.3l-3-1.5l-0.6-3.3
		C5.3,404.1-6.9,236.8,4.9,172.9c0.6-3.2,3.2-5.5,6.4-5.5c5.4-0.1,6.7,4.9,7.4,7.9c0.5,2,1.2,4.9,2,8.5c4,17.7,12.4,54.4,25.9,89.5
		c16.3,42.3,34.7,68.9,54.7,79c28.2,14.3,66.5-13.4,93.6-39.2c31.8-30.2,55.1-63.6,57.5-67.5l6-19l6.2,19.6
		c29.1,92.3,16.5,202.2,16,206.8l-0.4,3.5l-3.2,1.6C233.9,479,189.6,489.6,144.8,489.6z M26.5,449.9c20.8,9.9,53,21.8,93.4,25.5
		c50.2,4.6,99.9-4.7,148-27.6c1.8-18.5,8.8-107-12-184.7c-18.8,25.8-65.4,81.3-109.1,99.6c-19.4,8.2-36.7,8.5-51.4,1.1
		C51.2,341.5,26,260,13.9,211.5C9.9,285,19.2,404.5,26.5,449.9z M252.4,245.3C252.4,245.3,252.4,245.3,252.4,245.3
		C252.4,245.3,252.4,245.3,252.4,245.3z"/>
	<path class="st0" d="M104.6,268.5c-8.4,0-16.8-1-25.2-3.3c-19-5.3-35.5-17.8-50.4-38.2c-5-6.8-9.3-18.6-13.4-29.9
		c-3.2-8.8-6.6-18-9.6-22.9l-1.3-2.1l0.4-2.5c9-50.8,22.4-90.8,39.8-118.8C66.3,16.2,94.2-1,127.7,0c38.8,1.2,71.2,29.6,96.2,84.6
		c18.6,40.8,33.2,96.1,43.3,164.2l2.2,14.7l-12.3-8.4c-6.5-4.5-13.2-7.2-20.3-8.4c-21.7-3.6-44.5,2.9-66.6,9.2
		c-2.2,0.6-4.5,1.3-6.7,1.9C145.1,262.9,125,268.5,104.6,268.5z M18.3,169.6c3.3,6,6.3,14.3,9.5,23.1c3.8,10.5,7.8,21.3,11.7,26.7
		c13.1,17.9,27.2,28.8,43.4,33.3c25.2,7,51.6-0.3,77.2-7.4c2.2-0.6,4.4-1.2,6.6-1.9c22.4-6.3,47.7-13.5,72.3-9.5
		c4.6,0.8,9.1,2,13.4,3.8c-3.6-22.1-7.6-42.7-12.1-61.8c-0.2,23.4-19.3,42.3-42.7,42.3c-23.5,0-42.7-19.1-42.7-42.7
		s19.1-42.7,42.7-42.7c16,0,30,8.9,37.3,22c-6.7-24.7-14.3-46.4-22.8-65c-22.8-50.1-51.3-76-84.8-76.9C98.4,12.2,75,26.8,55.9,57.8
		C39.7,84,27,121.6,18.3,169.6z M197.6,145.9c-16.4,0-29.7,13.3-29.7,29.7c0,16.4,13.3,29.7,29.7,29.7c16.4,0,29.7-13.3,29.7-29.7
		C227.2,159.3,213.9,145.9,197.6,145.9z M126.5,154.1c-33.4,0-60.6-27.2-60.6-60.6s27.2-60.6,60.6-60.6s60.6,27.2,60.6,60.6
		S160,154.1,126.5,154.1z M126.5,45.9c-26.3,0-47.6,21.4-47.6,47.6c0,26.3,21.4,47.6,47.6,47.6s47.6-21.4,47.6-47.6
		C174.2,67.2,152.8,45.9,126.5,45.9z"/>
</g>
</svg>
