<?xml version="1.0" encoding="utf-8"?>
<!-- Generator: Adobe Illustrator 22.0.0, SVG Export Plug-In . SVG Version: 6.00 Build 0)  -->
<svg version="1.1" id="Layer_1" xmlns="http://www.w3.org/2000/svg" xmlns:xlink="http://www.w3.org/1999/xlink" x="0px" y="0px"
	 viewBox="0 0 930 240" style="enable-background:new 0 0 930 240;" xml:space="preserve">
<style type="text/css">
	.st0{fill:#231F20;}
	.st1{fill:#6D6E70;}
	.st2{fill:#EC1C24;}
</style>
<g>
	<path class="st0" d="M18.5,15.6h59.2v11.9H32.9v36.5h41.4v11.7H32.9v49.8H18.5V15.6z"/>
	<path class="st0" d="M97.9,15.6h14.4v98h47v11.9H97.9V15.6z"/>
	<path class="st0" d="M231.9,74h-42.6v39.6h47.6v11.9h-62V15.6h59.5v11.9h-45.2v34.7h42.6V74z"/>
	<path class="st0" d="M332,122.1c-5.1,2.6-15.7,5.2-29,5.2c-31,0-54.2-19.6-54.2-55.8c0-34.6,23.3-57.7,57.4-57.7
		c13.5,0,22.3,2.9,26.1,4.9l-3.6,11.6c-5.2-2.6-12.9-4.6-22-4.6c-25.8,0-42.9,16.5-42.9,45.3c0,27.1,15.5,44.2,42.1,44.2
		c8.8,0,17.6-1.8,23.3-4.6L332,122.1z"/>
	<path class="st0" d="M364.1,15.6v46h53.2v-46h14.4v109.9h-14.4V74h-53.2v51.5h-14.4V15.6H364.1z"/>
	<path class="st0" d="M563.7,17.1c7.2-1.3,17.6-2.3,27.2-2.3c15.2,0,25.1,2.9,31.8,9c5.4,4.9,8.6,12.4,8.6,21
		c0,14.4-9.1,24-20.6,27.9v0.5c8.3,2.9,13.4,10.8,16,22.2c3.6,15.3,6.2,25.9,8.5,30.2h-14.7c-1.8-3.3-4.2-12.6-7.2-26.3
		c-3.3-15.2-9.3-20.9-22.2-21.4h-13.4v47.6h-14.2V17.1z M577.9,67.2h14.5c15.2,0,24.8-8.3,24.8-20.9c0-14.2-10.3-20.4-25.3-20.4
		c-6.9,0-11.6,0.5-14,1.1V67.2z"/>
	<path class="st0" d="M745.9,69.5c0,37.7-23,57.9-51.1,57.9c-29.2,0-49.4-22.7-49.4-55.9c0-34.9,21.5-57.7,50.9-57.7
		C726.5,13.7,745.9,36.7,745.9,69.5z M660.4,71.1c0,23.7,12.7,44.7,35.2,44.7c22.5,0,35.2-20.7,35.2-45.7c0-22-11.4-44.9-35.1-44.9
		C672.1,25.2,660.4,47.1,660.4,71.1z"/>
	<path class="st0" d="M786.7,15.6H801v73.6c0,29.2-14.3,38.2-33.3,38.2c-5.4,0-11.7-1.1-15.2-2.6l2-11.6c2.9,1.1,7.2,2.1,12.1,2.1
		c12.7,0,20.1-5.7,20.1-27.2V15.6z"/>
	<path class="st0" d="M842.4,91L831,125.6h-14.7l37.5-109.9h17l37.5,109.9h-15.2L881.4,91H842.4z M878.7,79.9l-10.9-31.6
		c-2.4-7.2-4.1-13.7-5.7-20.1h-0.3c-1.6,6.4-3.3,13.2-5.5,19.9l-10.8,31.8H878.7z"/>
	<g>
		<path class="st1" d="M34.9,170.6v9.7h10.8v5.6H34.9v21.8c0,5,1.5,7.8,5.7,7.8c2.1,0,3.3-0.2,4.4-0.5l0.3,5.6c-1.5,0.5-3.8,1-6.7,1
			c-3.5,0-6.4-1.2-8.2-3.1c-2.1-2.3-2.9-5.8-2.9-10.6v-22H21v-5.6h6.4v-7.5L34.9,170.6z"/>
		<path class="st1" d="M97.3,201.8c0.2,9.9,6.6,14,14.3,14c5.4,0,8.8-0.9,11.5-2.1l1.4,5.3c-2.7,1.2-7.3,2.6-13.9,2.6
			c-12.8,0-20.4-8.3-20.4-20.5c0-12.2,7.4-21.7,19.5-21.7c13.6,0,17.2,11.5,17.2,19c0,1.5-0.1,2.6-0.3,3.4H97.3z M119.5,196.5
			c0.1-4.6-2-11.9-10.5-11.9c-7.7,0-11,6.8-11.6,11.9H119.5z"/>
		<path class="st1" d="M205.2,219.3c-2,0.9-6.4,2.3-11.9,2.3c-12.5,0-20.7-8.3-20.7-20.6c0-12.4,8.8-21.5,22.3-21.5
			c4.5,0,8.4,1.1,10.5,2.2l-1.7,5.6c-1.8-0.9-4.6-1.9-8.8-1.9c-9.5,0-14.7,6.9-14.7,15.3c0,9.4,6.2,15.1,14.4,15.1
			c4.3,0,7.1-1,9.3-1.9L205.2,219.3z"/>
		<path class="st1" d="M253.6,161.4h7.6v25.3h0.2c1.2-2.1,3.1-4,5.4-5.3c2.2-1.3,4.9-2,7.7-2c5.6,0,14.5,3.3,14.5,17.2v24.1h-7.6
			v-23.2c0-6.5-2.5-11.9-9.6-11.9c-4.9,0-8.7,3.3-10.1,7.3c-0.4,1.1-0.5,2.2-0.5,3.5v24.4h-7.6V161.4z"/>
		<path class="st1" d="M340.7,191.2c0-4.3-0.1-7.6-0.3-10.9h6.7l0.4,6.7h0.2c2.1-3.8,6.9-7.5,13.7-7.5c5.8,0,14.7,3.3,14.7,17.2
			v24.1h-7.6v-23.3c0-6.5-2.5-11.9-9.6-11.9c-4.9,0-8.8,3.4-10.1,7.5c-0.3,0.9-0.5,2.2-0.5,3.4v24.3h-7.5V191.2z"/>
		<path class="st1" d="M465.4,200.1c0,14.9-10.7,21.5-20.7,21.5c-11.2,0-19.9-8-19.9-20.8c0-13.4,9.2-21.4,20.6-21.4
			C457.3,179.4,465.4,187.9,465.4,200.1z M432.5,200.5c0,8.8,5.1,15.5,12.5,15.5c7.2,0,12.6-6.6,12.6-15.7c0-6.8-3.5-15.4-12.5-15.4
			C436.4,184.9,432.5,192.9,432.5,200.5z"/>
		<path class="st1" d="M514.4,161.4h7.6v59.3h-7.6V161.4z"/>
		<path class="st1" d="M611.7,200.1c0,14.9-10.7,21.5-20.7,21.5c-11.2,0-19.9-8-19.9-20.8c0-13.4,9.2-21.4,20.6-21.4
			C603.7,179.4,611.7,187.9,611.7,200.1z M578.8,200.5c0,8.8,5.2,15.5,12.5,15.5c7.2,0,12.6-6.6,12.6-15.7c0-6.8-3.5-15.4-12.5-15.4
			C582.7,184.9,578.8,192.9,578.8,200.5z"/>
		<path class="st1" d="M696.3,214.7c0,9.4-2,14.9-5.9,18.5c-4.1,3.6-10,4.8-15.2,4.8c-5,0-10.5-1.2-13.8-3.3l1.9-5.7
			c2.7,1.8,7,3.3,12.2,3.3c7.7,0,13.4-3.9,13.4-14.2v-4.4h-0.2c-2.2,3.8-6.8,6.8-13.2,6.8c-10.3,0-17.7-8.5-17.7-19.7
			c0-13.7,9.2-21.4,18.8-21.4c7.2,0,11.1,3.6,13,6.9h0.2l0.3-6.1h6.7c-0.3,2.8-0.3,6.2-0.3,11V214.7z M688.7,196.2
			c0-1.3-0.1-2.3-0.4-3.3c-1.4-4.3-5-7.8-10.6-7.8c-7.2,0-12.4,5.9-12.4,15.3c0,7.9,4.2,14.5,12.3,14.5c4.7,0,8.9-2.8,10.5-7.5
			c0.4-1.3,0.6-2.7,0.6-3.9V196.2z"/>
		<path class="st1" d="M756.1,168.9c0,2.5-1.8,4.5-4.8,4.5c-2.8,0-4.6-2-4.6-4.5c0-2.5,1.9-4.6,4.7-4.6
			C754.2,164.3,756.1,166.3,756.1,168.9z M747.7,220.7v-40.4h7.6v40.4H747.7z"/>
		<path class="st1" d="M811.4,201.8c0.2,9.9,6.6,14,14.3,14c5.4,0,8.8-0.9,11.5-2.1l1.4,5.3c-2.7,1.2-7.3,2.6-13.9,2.6
			c-12.8,0-20.4-8.3-20.4-20.5c0-12.2,7.4-21.7,19.5-21.7c13.6,0,17.2,11.5,17.2,19c0,1.5-0.1,2.6-0.3,3.4H811.4z M833.6,196.5
			c0.1-4.6-2-11.9-10.5-11.9c-7.7,0-11,6.8-11.6,11.9H833.6z"/>
		<path class="st1" d="M888.7,213.2c2.3,1.3,6.3,2.8,10.1,2.8c5.4,0,8-2.6,8-6c0-3.5-2.1-5.3-7.6-7.3c-7.6-2.7-11.1-6.6-11.1-11.4
			c0-6.5,5.5-11.9,14.3-11.9c4.2,0,7.9,1.1,10.1,2.5l-1.8,5.3c-1.6-1-4.6-2.4-8.5-2.4c-4.5,0-6.9,2.5-6.9,5.5c0,3.3,2.4,4.8,7.8,6.9
			c7.1,2.6,10.9,6.1,10.9,12.1c0,7.2-5.8,12.2-15.5,12.2c-4.5,0-8.8-1.2-11.7-2.8L888.7,213.2z"/>
	</g>
	<path class="st2" d="M506.8,76c13.1-6.9,25.8-12.6,37.4-17L453.3-0.5l2.9,108.6c9.9-7.6,21.4-15.4,34.1-22.9l24.3,43.6
		c1.7,3.1,4.9,4.8,8.2,4.8c1.5,0,3.1-0.4,4.6-1.2c4.5-2.5,6.1-8.2,3.6-12.8L506.8,76z"/>
</g>
</svg>
